<mxfile host="app.diagrams.net" modified="2020-10-20T17:55:20.961Z" agent="5.0 (Macintosh; Intel Mac OS X 10_12_6) AppleWebKit/537.36 (KHTML, like Gecko) Chrome/83.0.4103.116 Safari/537.36" etag="_gilGo5f35E7I6LCTlzU" version="13.8.1" type="github" pages="2">
  <diagram id="IWJGg7sIkSaUZZVYpNqv" name="Page-1">
    <mxGraphModel dx="4744" dy="2200" grid="1" gridSize="10" guides="1" tooltips="1" connect="1" arrows="1" fold="1" page="1" pageScale="1" pageWidth="1654" pageHeight="1169" math="0" shadow="0">
      <root>
        <mxCell id="0" />
        <mxCell id="1" parent="0" />
        <UserObject label="n" lucidchartObjectId="oFDGidOGp68N" id="2z8W7k44ApbdHrLgipjh-1">
          <mxCell style="html=1;whiteSpace=wrap;;whiteSpace=wrap;fontSize=19;fontColor=#333333;fontStyle=1;spacing=3;strokeOpacity=100;fillOpacity=100;rounded=1;absoluteArcSize=1;arcSize=7.199999999999999;fillColor=#ffdba9;strokeWidth=2;" vertex="1" zOrder="67" parent="1">
            <mxGeometry x="676" y="210" width="144" height="36" as="geometry" />
          </mxCell>
        </UserObject>
        <UserObject label="How 3 (0011) will be stored in hash table ?" lucidchartObjectId="onDGtD1DIIUm" id="2z8W7k44ApbdHrLgipjh-2">
          <mxCell style="html=1;whiteSpace=wrap;;whiteSpace=wrap;fontSize=17;fontColor=#333333;spacing=3;strokeOpacity=0;fillOpacity=0;rounded=1;absoluteArcSize=1;arcSize=7.199999999999999;fillColor=#ffffff;strokeWidth=2;" vertex="1" zOrder="16" parent="1">
            <mxGeometry x="587" y="140" width="336" height="48" as="geometry" />
          </mxCell>
        </UserObject>
        <UserObject label="Hash table data structure" lucidchartObjectId="3nDG80jC84aU" id="2z8W7k44ApbdHrLgipjh-3">
          <mxCell style="html=1;whiteSpace=wrap;;whiteSpace=wrap;fontSize=23;fontColor=#333333;fontStyle=1;spacing=3;strokeOpacity=0;fillOpacity=0;rounded=1;absoluteArcSize=1;arcSize=7.199999999999999;fillColor=#ffffff;strokeWidth=2;" vertex="1" zOrder="17" parent="1">
            <mxGeometry x="556" y="80" width="396" height="64" as="geometry" />
          </mxCell>
        </UserObject>
        <UserObject label="" lucidchartObjectId="ekDG3IyOFqW4" id="2z8W7k44ApbdHrLgipjh-4">
          <mxCell style="html=1;whiteSpace=wrap;;whiteSpace=wrap;fontSize=11;spacing=3;strokeColor=#5e5e5e;strokeOpacity=100;rounded=1;absoluteArcSize=1;arcSize=7.199999999999999;strokeWidth=2;" vertex="1" zOrder="1" parent="1">
            <mxGeometry x="388" y="358" width="144" height="48" as="geometry" />
          </mxCell>
        </UserObject>
        <UserObject label="" lucidchartObjectId="nkDGgS.ldS9W" id="2z8W7k44ApbdHrLgipjh-5">
          <mxCell style="html=1;whiteSpace=wrap;;whiteSpace=wrap;fontSize=11;spacing=3;strokeColor=#5e5e5e;strokeOpacity=100;rounded=1;absoluteArcSize=1;arcSize=7.199999999999999;strokeWidth=2;" vertex="1" zOrder="2" parent="1">
            <mxGeometry x="388" y="428" width="144" height="48" as="geometry" />
          </mxCell>
        </UserObject>
        <UserObject label="" lucidchartObjectId="qkDGK5mEeanc" id="2z8W7k44ApbdHrLgipjh-6">
          <mxCell style="html=1;whiteSpace=wrap;;whiteSpace=wrap;fontSize=11;spacing=3;strokeColor=#5e5e5e;strokeOpacity=100;rounded=1;absoluteArcSize=1;arcSize=7.199999999999999;strokeWidth=2;" vertex="1" zOrder="3" parent="1">
            <mxGeometry x="388" y="500" width="144" height="48" as="geometry" />
          </mxCell>
        </UserObject>
        <UserObject label="" lucidchartObjectId="tkDG5XpOnDj0" id="2z8W7k44ApbdHrLgipjh-7">
          <mxCell style="html=1;whiteSpace=wrap;;whiteSpace=wrap;fontSize=11;spacing=3;strokeColor=#5e5e5e;strokeOpacity=100;rounded=1;absoluteArcSize=1;arcSize=7.199999999999999;strokeWidth=2;" vertex="1" zOrder="4" parent="1">
            <mxGeometry x="388" y="572" width="144" height="48" as="geometry" />
          </mxCell>
        </UserObject>
        <UserObject label="0" lucidchartObjectId="DkDGw91_ZBJE" id="2z8W7k44ApbdHrLgipjh-8">
          <mxCell style="html=1;whiteSpace=wrap;;whiteSpace=wrap;fontSize=18;fontColor=#333333;spacing=3;strokeOpacity=0;fillOpacity=0;rounded=1;absoluteArcSize=1;arcSize=7.199999999999999;fillColor=#ffffff;strokeWidth=2;" vertex="1" zOrder="5" parent="1">
            <mxGeometry x="280" y="364" width="144" height="36" as="geometry" />
          </mxCell>
        </UserObject>
        <UserObject label="1" lucidchartObjectId="QkDGZsleuM5r" id="2z8W7k44ApbdHrLgipjh-9">
          <mxCell style="html=1;whiteSpace=wrap;;whiteSpace=wrap;fontSize=18;fontColor=#333333;spacing=3;strokeOpacity=0;fillOpacity=0;rounded=1;absoluteArcSize=1;arcSize=7.199999999999999;fillColor=#ffffff;strokeWidth=2;" vertex="1" zOrder="6" parent="1">
            <mxGeometry x="280" y="434" width="144" height="36" as="geometry" />
          </mxCell>
        </UserObject>
        <UserObject label="2" lucidchartObjectId="UkDGNldg_gdS" id="2z8W7k44ApbdHrLgipjh-10">
          <mxCell style="html=1;whiteSpace=wrap;;whiteSpace=wrap;fontSize=18;fontColor=#333333;spacing=3;strokeOpacity=0;fillOpacity=0;rounded=1;absoluteArcSize=1;arcSize=7.199999999999999;fillColor=#ffffff;strokeWidth=2;" vertex="1" zOrder="7" parent="1">
            <mxGeometry x="280" y="506" width="144" height="36" as="geometry" />
          </mxCell>
        </UserObject>
        <UserObject label="3" lucidchartObjectId="ZkDGvmtAK0yy" id="2z8W7k44ApbdHrLgipjh-11">
          <mxCell style="html=1;whiteSpace=wrap;;whiteSpace=wrap;fontSize=18;fontColor=#333333;spacing=3;strokeOpacity=0;fillOpacity=0;rounded=1;absoluteArcSize=1;arcSize=7.199999999999999;fillColor=#ffffff;strokeWidth=2;" vertex="1" zOrder="8" parent="1">
            <mxGeometry x="280" y="566" width="144" height="36" as="geometry" />
          </mxCell>
        </UserObject>
        <UserObject label="" lucidchartObjectId="alDG737u2-MD" id="2z8W7k44ApbdHrLgipjh-12">
          <mxCell style="html=1;whiteSpace=wrap;;whiteSpace=wrap;fontSize=11;spacing=3;strokeColor=#5e5e5e;strokeOpacity=100;rounded=1;absoluteArcSize=1;arcSize=7.199999999999999;strokeWidth=2;" vertex="1" zOrder="9" parent="1">
            <mxGeometry x="388" y="638" width="144" height="48" as="geometry" />
          </mxCell>
        </UserObject>
        <UserObject label="4" lucidchartObjectId="flDGsHlUV~Gh" id="2z8W7k44ApbdHrLgipjh-13">
          <mxCell style="html=1;whiteSpace=wrap;;whiteSpace=wrap;fontSize=18;fontColor=#333333;spacing=3;strokeOpacity=0;fillOpacity=0;rounded=1;absoluteArcSize=1;arcSize=7.199999999999999;fillColor=#ffffff;strokeWidth=2;" vertex="1" zOrder="10" parent="1">
            <mxGeometry x="280" y="644" width="144" height="36" as="geometry" />
          </mxCell>
        </UserObject>
        <UserObject label="" lucidchartObjectId="PoDG6qd6Zcoc" id="2z8W7k44ApbdHrLgipjh-14">
          <mxCell style="html=1;whiteSpace=wrap;;whiteSpace=wrap;fontSize=11;spacing=3;strokeColor=#5e5e5e;strokeOpacity=100;fillOpacity=100;rounded=1;absoluteArcSize=1;arcSize=7.199999999999999;fillColor=#ffdba9;strokeWidth=2;" vertex="1" zOrder="19" parent="1">
            <mxGeometry x="544" y="364" width="132" height="35" as="geometry" />
          </mxCell>
        </UserObject>
        <UserObject label="" lucidchartObjectId="PoDGtAfB9Z8W" id="2z8W7k44ApbdHrLgipjh-15">
          <mxCell style="html=1;whiteSpace=wrap;;whiteSpace=wrap;fontSize=11;spacing=3;strokeColor=#5e5e5e;strokeOpacity=100;fillOpacity=100;rounded=1;absoluteArcSize=1;arcSize=7.199999999999999;fillColor=#ffdba9;strokeWidth=2;" vertex="1" zOrder="20" parent="1">
            <mxGeometry x="550" y="370" width="30" height="23" as="geometry" />
          </mxCell>
        </UserObject>
        <UserObject label="" lucidchartObjectId="PoDG~78hR0C_" id="2z8W7k44ApbdHrLgipjh-16">
          <mxCell style="html=1;whiteSpace=wrap;;whiteSpace=wrap;fontSize=11;spacing=3;strokeColor=#5e5e5e;strokeOpacity=100;fillOpacity=100;rounded=1;absoluteArcSize=1;arcSize=7.199999999999999;fillColor=#ffdba9;strokeWidth=2;" vertex="1" zOrder="21" parent="1">
            <mxGeometry x="640" y="370" width="30" height="23" as="geometry" />
          </mxCell>
        </UserObject>
        <UserObject label="" lucidchartObjectId="PoDG.crxVj5r" id="2z8W7k44ApbdHrLgipjh-17">
          <mxCell style="html=1;whiteSpace=wrap;;whiteSpace=wrap;fontSize=11;spacing=3;strokeColor=#5e5e5e;strokeOpacity=100;fillOpacity=100;rounded=1;absoluteArcSize=1;arcSize=7.199999999999999;fillColor=#ffdba9;strokeWidth=2;" vertex="1" zOrder="22" parent="1">
            <mxGeometry x="586" y="364" width="48" height="35" as="geometry" />
          </mxCell>
        </UserObject>
        <UserObject label="Root" lucidchartObjectId="epDG_kFiEgua" id="2z8W7k44ApbdHrLgipjh-18">
          <mxCell style="html=1;whiteSpace=wrap;;whiteSpace=wrap;fontSize=13;fontColor=#333333;spacing=3;strokeOpacity=0;fillOpacity=0;rounded=1;absoluteArcSize=1;arcSize=7.199999999999999;fillColor=#ffffff;strokeWidth=2;" vertex="1" zOrder="26" parent="1">
            <mxGeometry x="424" y="363" width="60" height="36" as="geometry" />
          </mxCell>
        </UserObject>
        <UserObject label="" lucidchartObjectId="MyDGFwKzmLox" id="2z8W7k44ApbdHrLgipjh-19">
          <mxCell style="html=1;whiteSpace=wrap;;whiteSpace=wrap;fontSize=11;spacing=3;strokeColor=#5e5e5e;strokeOpacity=100;rounded=1;absoluteArcSize=1;arcSize=7.199999999999999;strokeWidth=2;" vertex="1" zOrder="29" parent="1">
            <mxGeometry x="544" y="434" width="132" height="35" as="geometry" />
          </mxCell>
        </UserObject>
        <UserObject label="" lucidchartObjectId="MyDGLu8q1rsf" id="2z8W7k44ApbdHrLgipjh-20">
          <mxCell style="html=1;whiteSpace=wrap;;whiteSpace=wrap;fontSize=11;spacing=3;strokeColor=#5e5e5e;strokeOpacity=100;rounded=1;absoluteArcSize=1;arcSize=7.199999999999999;strokeWidth=2;" vertex="1" zOrder="30" parent="1">
            <mxGeometry x="550" y="440" width="30" height="23" as="geometry" />
          </mxCell>
        </UserObject>
        <UserObject label="" lucidchartObjectId="MyDGn54SrBQ_" id="2z8W7k44ApbdHrLgipjh-21">
          <mxCell style="html=1;whiteSpace=wrap;;whiteSpace=wrap;fontSize=11;spacing=3;strokeColor=#5e5e5e;strokeOpacity=100;rounded=1;absoluteArcSize=1;arcSize=7.199999999999999;strokeWidth=2;" vertex="1" zOrder="31" parent="1">
            <mxGeometry x="640" y="440" width="30" height="23" as="geometry" />
          </mxCell>
        </UserObject>
        <UserObject label="" lucidchartObjectId="MyDG9oI9kd3E" id="2z8W7k44ApbdHrLgipjh-22">
          <mxCell style="html=1;whiteSpace=wrap;;whiteSpace=wrap;fontSize=11;spacing=3;strokeColor=#5e5e5e;strokeOpacity=100;rounded=1;absoluteArcSize=1;arcSize=7.199999999999999;strokeWidth=2;" vertex="1" zOrder="32" parent="1">
            <mxGeometry x="586" y="434" width="48" height="35" as="geometry" />
          </mxCell>
        </UserObject>
        <UserObject label="" lucidchartObjectId="7yDG69_6mBgo" id="2z8W7k44ApbdHrLgipjh-23">
          <mxCell style="html=1;whiteSpace=wrap;;whiteSpace=wrap;fontSize=11;spacing=3;strokeColor=#5e5e5e;strokeOpacity=100;rounded=1;absoluteArcSize=1;arcSize=7.199999999999999;strokeWidth=2;" vertex="1" zOrder="33" parent="1">
            <mxGeometry x="544" y="507" width="132" height="35" as="geometry" />
          </mxCell>
        </UserObject>
        <UserObject label="" lucidchartObjectId="7yDGr4oscpkb" id="2z8W7k44ApbdHrLgipjh-24">
          <mxCell style="html=1;whiteSpace=wrap;;whiteSpace=wrap;fontSize=11;spacing=3;strokeColor=#5e5e5e;strokeOpacity=100;rounded=1;absoluteArcSize=1;arcSize=7.199999999999999;strokeWidth=2;" vertex="1" zOrder="34" parent="1">
            <mxGeometry x="550" y="513" width="30" height="23" as="geometry" />
          </mxCell>
        </UserObject>
        <UserObject label="" lucidchartObjectId="7yDGgNE7gqlo" id="2z8W7k44ApbdHrLgipjh-25">
          <mxCell style="html=1;whiteSpace=wrap;;whiteSpace=wrap;fontSize=11;spacing=3;strokeColor=#5e5e5e;strokeOpacity=100;rounded=1;absoluteArcSize=1;arcSize=7.199999999999999;strokeWidth=2;" vertex="1" zOrder="35" parent="1">
            <mxGeometry x="640" y="513" width="30" height="23" as="geometry" />
          </mxCell>
        </UserObject>
        <UserObject label="" lucidchartObjectId="7yDG8B97a38m" id="2z8W7k44ApbdHrLgipjh-26">
          <mxCell style="html=1;whiteSpace=wrap;;whiteSpace=wrap;fontSize=11;spacing=3;strokeColor=#5e5e5e;strokeOpacity=100;rounded=1;absoluteArcSize=1;arcSize=7.199999999999999;strokeWidth=2;" vertex="1" zOrder="36" parent="1">
            <mxGeometry x="586" y="507" width="48" height="35" as="geometry" />
          </mxCell>
        </UserObject>
        <UserObject label="" lucidchartObjectId="dzDGmke.envG" id="2z8W7k44ApbdHrLgipjh-27">
          <mxCell style="html=1;whiteSpace=wrap;;whiteSpace=wrap;fontSize=11;spacing=3;strokeColor=#5e5e5e;strokeOpacity=100;rounded=1;absoluteArcSize=1;arcSize=7.199999999999999;strokeWidth=2;" vertex="1" zOrder="37" parent="1">
            <mxGeometry x="688" y="578" width="132" height="35" as="geometry" />
          </mxCell>
        </UserObject>
        <UserObject label="" lucidchartObjectId="dzDG_TIBZVDY" id="2z8W7k44ApbdHrLgipjh-28">
          <mxCell style="html=1;whiteSpace=wrap;;whiteSpace=wrap;fontSize=11;spacing=3;strokeColor=#5e5e5e;strokeOpacity=100;rounded=1;absoluteArcSize=1;arcSize=7.199999999999999;strokeWidth=2;" vertex="1" zOrder="38" parent="1">
            <mxGeometry x="694" y="584" width="30" height="23" as="geometry" />
          </mxCell>
        </UserObject>
        <UserObject label="" lucidchartObjectId="dzDGHme0JBAL" id="2z8W7k44ApbdHrLgipjh-29">
          <mxCell style="html=1;whiteSpace=wrap;;whiteSpace=wrap;fontSize=11;spacing=3;strokeColor=#5e5e5e;strokeOpacity=100;rounded=1;absoluteArcSize=1;arcSize=7.199999999999999;strokeWidth=2;" vertex="1" zOrder="39" parent="1">
            <mxGeometry x="784" y="584" width="30" height="23" as="geometry" />
          </mxCell>
        </UserObject>
        <UserObject label="" lucidchartObjectId="dzDGE3NSWet1" id="2z8W7k44ApbdHrLgipjh-30">
          <mxCell style="html=1;whiteSpace=wrap;;whiteSpace=wrap;fontSize=11;spacing=3;strokeColor=#5e5e5e;strokeOpacity=100;rounded=1;absoluteArcSize=1;arcSize=7.199999999999999;strokeWidth=2;" vertex="1" zOrder="40" parent="1">
            <mxGeometry x="730" y="578" width="48" height="35" as="geometry" />
          </mxCell>
        </UserObject>
        <mxCell id="2z8W7k44ApbdHrLgipjh-31" value="" style="group;dropTarget=0;" vertex="1" parent="1">
          <mxGeometry x="1000" y="651" width="132" height="35" as="geometry" />
        </mxCell>
        <UserObject label="" lucidchartObjectId="CzDG5eEodioo" id="2z8W7k44ApbdHrLgipjh-32">
          <mxCell style="html=1;whiteSpace=wrap;;whiteSpace=wrap;fontSize=11;spacing=3;strokeColor=#5e5e5e;strokeOpacity=100;rounded=1;absoluteArcSize=1;arcSize=7.199999999999999;strokeWidth=2;" vertex="1" zOrder="50" parent="2z8W7k44ApbdHrLgipjh-31">
            <mxGeometry width="132" height="35" as="geometry" />
          </mxCell>
        </UserObject>
        <UserObject label="" lucidchartObjectId="CzDGHZVDNG.T" id="2z8W7k44ApbdHrLgipjh-33">
          <mxCell style="html=1;whiteSpace=wrap;;whiteSpace=wrap;fontSize=11;spacing=3;strokeColor=#5e5e5e;strokeOpacity=100;rounded=1;absoluteArcSize=1;arcSize=7.199999999999999;strokeWidth=2;" vertex="1" zOrder="51" parent="2z8W7k44ApbdHrLgipjh-31">
            <mxGeometry x="6" y="6" width="30" height="23" as="geometry" />
          </mxCell>
        </UserObject>
        <UserObject label="" lucidchartObjectId="CzDG5ExqS6kb" id="2z8W7k44ApbdHrLgipjh-34">
          <mxCell style="html=1;whiteSpace=wrap;;whiteSpace=wrap;fontSize=11;spacing=3;strokeColor=#5e5e5e;strokeOpacity=100;rounded=1;absoluteArcSize=1;arcSize=7.199999999999999;strokeWidth=2;" vertex="1" zOrder="52" parent="2z8W7k44ApbdHrLgipjh-31">
            <mxGeometry x="96" y="6" width="30" height="23" as="geometry" />
          </mxCell>
        </UserObject>
        <UserObject label="" lucidchartObjectId="CzDGRBUMCbgZ" id="2z8W7k44ApbdHrLgipjh-35">
          <mxCell style="html=1;whiteSpace=wrap;;whiteSpace=wrap;fontSize=11;spacing=3;strokeColor=#5e5e5e;strokeOpacity=100;rounded=1;absoluteArcSize=1;arcSize=7.199999999999999;strokeWidth=2;" vertex="1" zOrder="53" parent="2z8W7k44ApbdHrLgipjh-31">
            <mxGeometry x="42" width="48" height="35" as="geometry" />
          </mxCell>
        </UserObject>
        <UserObject label="00" lucidchartObjectId="UADGv.UOPugP" id="2z8W7k44ApbdHrLgipjh-36">
          <mxCell style="html=1;whiteSpace=wrap;;whiteSpace=wrap;fontSize=12;fontColor=#000000;spacing=3;strokeOpacity=0;fillOpacity=0;rounded=1;absoluteArcSize=1;arcSize=7.199999999999999;fillColor=#ffffff;strokeWidth=2;" vertex="1" zOrder="57" parent="1">
            <mxGeometry x="597" y="514" width="30" height="23" as="geometry" />
          </mxCell>
        </UserObject>
        <UserObject label="&lt;span style=&quot;font-size:12px;color:#000000;&quot;&gt; &lt;/span&gt;&lt;span style=&quot;font-size:13px;color:#333333;&quot;&gt;0&lt;/span&gt;" lucidchartObjectId="3BDGD7gB7R~a" id="2z8W7k44ApbdHrLgipjh-37">
          <mxCell style="html=1;whiteSpace=wrap;;whiteSpace=wrap;spacing=3;strokeOpacity=0;fillOpacity=0;rounded=1;absoluteArcSize=1;arcSize=7.199999999999999;fillColor=#ffffff;strokeWidth=2;" vertex="1" zOrder="58" parent="1">
            <mxGeometry x="594" y="441" width="30" height="23" as="geometry" />
          </mxCell>
        </UserObject>
        <UserObject label="001" lucidchartObjectId="xCDGzhHitIAo" id="2z8W7k44ApbdHrLgipjh-38">
          <mxCell style="html=1;whiteSpace=wrap;;whiteSpace=wrap;fontSize=12;fontColor=#000000;spacing=3;strokeOpacity=0;fillOpacity=0;rounded=1;absoluteArcSize=1;arcSize=7.199999999999999;fillColor=#ffffff;strokeWidth=2;" vertex="1" zOrder="59" parent="1">
            <mxGeometry x="740" y="585" width="30" height="23" as="geometry" />
          </mxCell>
        </UserObject>
        <UserObject label="0011" lucidchartObjectId="UCDGpaMDgABH" id="2z8W7k44ApbdHrLgipjh-39">
          <mxCell style="html=1;whiteSpace=wrap;;whiteSpace=wrap;fontSize=12;fontColor=#000000;spacing=3;strokeOpacity=0;fillOpacity=0;rounded=1;absoluteArcSize=1;arcSize=7.199999999999999;fillColor=#ffffff;strokeWidth=2;" vertex="1" zOrder="60" parent="1">
            <mxGeometry x="1052" y="659" width="30" height="23" as="geometry" />
          </mxCell>
        </UserObject>
        <UserObject label="0" lucidchartObjectId="QDDG4a-rcd0e" id="2z8W7k44ApbdHrLgipjh-40">
          <mxCell style="html=1;whiteSpace=wrap;;whiteSpace=wrap;fontSize=18;fontColor=#333333;spacing=3;strokeOpacity=0;fillOpacity=0;rounded=1;absoluteArcSize=1;arcSize=7.199999999999999;fillColor=#ffffff;strokeWidth=2;" vertex="1" zOrder="61" parent="1">
            <mxGeometry x="540" y="318" width="144" height="36" as="geometry" />
          </mxCell>
        </UserObject>
        <UserObject label="1" lucidchartObjectId="YDDGWDXEuqRn" id="2z8W7k44ApbdHrLgipjh-41">
          <mxCell style="html=1;whiteSpace=wrap;;whiteSpace=wrap;fontSize=18;fontColor=#333333;spacing=3;strokeOpacity=0;fillOpacity=0;rounded=1;absoluteArcSize=1;arcSize=7.199999999999999;fillColor=#ffffff;strokeWidth=2;" vertex="1" zOrder="62" parent="1">
            <mxGeometry x="688" y="318" width="144" height="36" as="geometry" />
          </mxCell>
        </UserObject>
        <UserObject label="2" lucidchartObjectId="8DDGZWbXn_Ms" id="2z8W7k44ApbdHrLgipjh-42">
          <mxCell style="html=1;whiteSpace=wrap;;whiteSpace=wrap;fontSize=18;fontColor=#333333;spacing=3;strokeOpacity=0;fillOpacity=0;rounded=1;absoluteArcSize=1;arcSize=7.199999999999999;fillColor=#ffffff;strokeWidth=2;" vertex="1" zOrder="63" parent="1">
            <mxGeometry x="844" y="318" width="144" height="36" as="geometry" />
          </mxCell>
        </UserObject>
        <UserObject label="3" lucidchartObjectId="iEDGpJNpWHK8" id="2z8W7k44ApbdHrLgipjh-43">
          <mxCell style="html=1;whiteSpace=wrap;;whiteSpace=wrap;fontSize=18;fontColor=#333333;spacing=3;strokeOpacity=0;fillOpacity=0;rounded=1;absoluteArcSize=1;arcSize=7.199999999999999;fillColor=#ffffff;strokeWidth=2;" vertex="1" zOrder="64" parent="1">
            <mxGeometry x="994" y="318" width="144" height="36" as="geometry" />
          </mxCell>
        </UserObject>
        <mxCell id="2z8W7k44ApbdHrLgipjh-44" value="" style="shape=doubleArrow;arrowWidth=0.5;arrowSize=0.032214765100671144;whiteSpace=wrap;fontSize=11;spacing=3;strokeColor=#5e5e5e;strokeOpacity=100;rounded=1;absoluteArcSize=1;arcSize=7.199999999999999;strokeWidth=2;html=1;" vertex="1" zOrder="65" parent="1">
          <mxGeometry x="388" y="260" width="745" height="48" as="geometry" />
        </mxCell>
        <mxCell id="2z8W7k44ApbdHrLgipjh-45" value="" style="shape=doubleArrow;arrowWidth=0.5;arrowSize=0.0729483282674772;whiteSpace=wrap;fontSize=11;spacing=3;strokeColor=#5e5e5e;strokeOpacity=100;rounded=1;absoluteArcSize=1;arcSize=7.199999999999999;rotation=-270;strokeWidth=2;html=1;" vertex="1" zOrder="66" parent="1">
          <mxGeometry x="140" y="498" width="329" height="48" as="geometry" />
        </mxCell>
        <UserObject label="log u" lucidchartObjectId="OFDG~PyZK58k" id="2z8W7k44ApbdHrLgipjh-46">
          <mxCell style="html=1;whiteSpace=wrap;;whiteSpace=wrap;fontSize=18;fontColor=#333333;fontStyle=1;spacing=3;strokeColor=#5e5e5e;strokeOpacity=100;fillOpacity=100;rounded=1;absoluteArcSize=1;arcSize=7.199999999999999;rotation=-90;fillColor=#ffdba9;strokeWidth=2;" vertex="1" zOrder="68" parent="1">
            <mxGeometry x="171" y="493" width="180" height="38" as="geometry" />
          </mxCell>
        </UserObject>
        <UserObject label="" lucidchartObjectId="6GDGnlCA-qbs" id="2z8W7k44ApbdHrLgipjh-47">
          <mxCell style="html=1;jettySize=18;whiteSpace=wrap;fontSize=11;strokeColor=#5E5E5E;rounded=1;arcSize=12;edgeStyle=orthogonalEdgeStyle;startArrow=none;;endArrow=block;endFill=1;;exitX=0.5;exitY=1.0385273886986273;exitPerimeter=0;entryX=0.8325358103459053;entryY=-0.025684931506849275;entryPerimeter=0;" edge="1" parent="1" source="2z8W7k44ApbdHrLgipjh-20" target="2z8W7k44ApbdHrLgipjh-35">
            <mxGeometry width="100" height="100" relative="1" as="geometry">
              <Array as="points">
                <mxPoint x="565" y="490" />
                <mxPoint x="1082" y="490" />
              </Array>
            </mxGeometry>
          </mxCell>
        </UserObject>
        <UserObject label="" lucidchartObjectId="~HDGigWZeJa0" id="2z8W7k44ApbdHrLgipjh-48">
          <mxCell style="html=1;jettySize=18;whiteSpace=wrap;fontSize=11;strokeColor=#5E5E5E;rounded=1;arcSize=12;edgeStyle=orthogonalEdgeStyle;startArrow=none;;endArrow=block;endFill=1;;exitX=0.5;exitY=1.0385273886986273;exitPerimeter=0;entryX=0.5;entryY=-0.025684931506849275;entryPerimeter=0;" edge="1" parent="1" source="2z8W7k44ApbdHrLgipjh-25" target="2z8W7k44ApbdHrLgipjh-32">
            <mxGeometry width="100" height="100" relative="1" as="geometry">
              <Array as="points">
                <mxPoint x="655" y="550" />
                <mxPoint x="1066" y="550" />
              </Array>
            </mxGeometry>
          </mxCell>
        </UserObject>
        <UserObject label="" lucidchartObjectId="pIDGeT4Yw_6n" id="2z8W7k44ApbdHrLgipjh-49">
          <mxCell style="html=1;jettySize=18;whiteSpace=wrap;fontSize=11;strokeColor=#5E5E5E;rounded=1;arcSize=12;edgeStyle=orthogonalEdgeStyle;startArrow=none;;endArrow=block;endFill=1;;exitX=0.5;exitY=1.0385273886986273;exitPerimeter=0;entryX=0.4949061501156706;entryY=-0.025684931506849213;entryPerimeter=0;" edge="1" parent="1" source="2z8W7k44ApbdHrLgipjh-29" target="2z8W7k44ApbdHrLgipjh-35">
            <mxGeometry width="100" height="100" relative="1" as="geometry">
              <Array as="points" />
            </mxGeometry>
          </mxCell>
        </UserObject>
        <UserObject label="Linked List" lucidchartObjectId="zIDG6kOaazEi" id="2z8W7k44ApbdHrLgipjh-50">
          <mxCell style="html=1;whiteSpace=wrap;;whiteSpace=wrap;fontSize=19;fontColor=#333333;fontStyle=1;spacing=3;strokeOpacity=0;fillOpacity=0;rounded=1;absoluteArcSize=1;arcSize=7.199999999999999;fillColor=#ffffff;strokeWidth=2;" vertex="1" zOrder="73" parent="1">
            <mxGeometry x="1150" y="646" width="174" height="36" as="geometry" />
          </mxCell>
        </UserObject>
        <UserObject label="" lucidchartObjectId="fWDGwsRCd._m" id="2z8W7k44ApbdHrLgipjh-51">
          <mxCell style="html=1;jettySize=18;whiteSpace=wrap;fontSize=11;strokeColor=#5E5E5E;rounded=1;arcSize=12;edgeStyle=orthogonalEdgeStyle;startArrow=none;;endArrow=block;endFill=1;;exitX=0.5;exitY=1.0385273886986273;exitPerimeter=0;entryX=-0.006818181818181818;entryY=0.5;entryPerimeter=0;" edge="1" parent="1" source="2z8W7k44ApbdHrLgipjh-24" target="2z8W7k44ApbdHrLgipjh-32">
            <mxGeometry width="100" height="100" relative="1" as="geometry">
              <Array as="points" />
            </mxGeometry>
          </mxCell>
        </UserObject>
        <UserObject label="" lucidchartObjectId="QXDGrlbIuTcQ" id="2z8W7k44ApbdHrLgipjh-52">
          <mxCell style="html=1;jettySize=18;whiteSpace=wrap;fontSize=11;strokeColor=#5E5E5E;rounded=1;arcSize=12;edgeStyle=orthogonalEdgeStyle;startArrow=none;;endArrow=block;endFill=1;;exitX=1.03;exitY=0.49999999685359414;exitPerimeter=0;entryX=0.7318076619071183;entryY=-0.025684931506849275;entryPerimeter=0;" edge="1" parent="1" source="2z8W7k44ApbdHrLgipjh-21" target="2z8W7k44ApbdHrLgipjh-32">
            <mxGeometry width="100" height="100" relative="1" as="geometry">
              <Array as="points" />
            </mxGeometry>
          </mxCell>
        </UserObject>
        <UserObject label="" lucidchartObjectId="7XDG0mC~gyap" id="2z8W7k44ApbdHrLgipjh-53">
          <mxCell style="html=1;jettySize=18;whiteSpace=wrap;fontSize=11;strokeColor=#5E5E5E;rounded=1;arcSize=12;edgeStyle=orthogonalEdgeStyle;startArrow=none;;endArrow=block;endFill=1;;exitX=1.0068181818181818;exitY=0.5;exitPerimeter=0;entryX=0.910930471917524;entryY=-0.025684931506849213;entryPerimeter=0;" edge="1" parent="1" source="2z8W7k44ApbdHrLgipjh-14" target="2z8W7k44ApbdHrLgipjh-32">
            <mxGeometry width="100" height="100" relative="1" as="geometry">
              <Array as="points" />
            </mxGeometry>
          </mxCell>
        </UserObject>
        <UserObject label="" lucidchartObjectId="KYDGmWPVAHYc" id="2z8W7k44ApbdHrLgipjh-54">
          <mxCell style="html=1;jettySize=18;whiteSpace=wrap;fontSize=11;strokeColor=#5E5E5E;rounded=1;arcSize=12;edgeStyle=orthogonalEdgeStyle;startArrow=none;;endArrow=block;endFill=1;;exitX=0.5;exitY=1.0385273886986273;exitPerimeter=0;entryX=-0.006818181818181818;entryY=0.09932709411302378;entryPerimeter=0;" edge="1" parent="1" source="2z8W7k44ApbdHrLgipjh-28" target="2z8W7k44ApbdHrLgipjh-32">
            <mxGeometry width="100" height="100" relative="1" as="geometry">
              <Array as="points" />
            </mxGeometry>
          </mxCell>
        </UserObject>
        <UserObject label="" lucidchartObjectId="PfEG4gMCgOay" id="2z8W7k44ApbdHrLgipjh-55">
          <mxCell style="html=1;jettySize=18;whiteSpace=wrap;fontSize=11;strokeColor=#5E5E5E;rounded=1;arcSize=12;edgeStyle=orthogonalEdgeStyle;startArrow=none;;endArrow=block;endFill=1;;exitX=0.5;exitY=1.0385273886986273;exitPerimeter=0;" edge="1" parent="1" source="2z8W7k44ApbdHrLgipjh-15">
            <mxGeometry width="100" height="100" relative="1" as="geometry">
              <Array as="points">
                <mxPoint x="565" y="410" />
                <mxPoint x="1111" y="410" />
              </Array>
              <mxPoint x="1111" y="650" as="targetPoint" />
            </mxGeometry>
          </mxCell>
        </UserObject>
      </root>
    </mxGraphModel>
  </diagram>
  <diagram id="vEeldU_RxWoLejNI-j77" name="Page-2">
    <mxGraphModel dx="1694" dy="786" grid="1" gridSize="10" guides="1" tooltips="1" connect="1" arrows="1" fold="1" page="1" pageScale="1" pageWidth="1654" pageHeight="1169" math="0" shadow="0">
      <root>
        <mxCell id="0zxgN9BtU9qliklbt1ul-0" />
        <mxCell id="0zxgN9BtU9qliklbt1ul-1" parent="0zxgN9BtU9qliklbt1ul-0" />
        <UserObject label="n" lucidchartObjectId="oFDGidOGp68N" id="HFs5CUlO1MuEZnN6Q4US-0">
          <mxCell style="html=1;whiteSpace=wrap;;whiteSpace=wrap;fontSize=19;fontColor=#333333;fontStyle=1;spacing=3;strokeOpacity=100;fillOpacity=100;rounded=1;absoluteArcSize=1;arcSize=7.199999999999999;fillColor=#ffdba9;strokeWidth=2;" vertex="1" zOrder="67" parent="0zxgN9BtU9qliklbt1ul-1">
            <mxGeometry x="466" y="200" width="144" height="36" as="geometry" />
          </mxCell>
        </UserObject>
        <UserObject label="" lucidchartObjectId="ekDG3IyOFqW4" id="HFs5CUlO1MuEZnN6Q4US-1">
          <mxCell style="html=1;whiteSpace=wrap;;whiteSpace=wrap;fontSize=11;spacing=3;strokeColor=#5e5e5e;strokeOpacity=100;rounded=1;absoluteArcSize=1;arcSize=7.199999999999999;strokeWidth=2;" vertex="1" zOrder="1" parent="0zxgN9BtU9qliklbt1ul-1">
            <mxGeometry x="178" y="348" width="144" height="48" as="geometry" />
          </mxCell>
        </UserObject>
        <UserObject label="" lucidchartObjectId="nkDGgS.ldS9W" id="HFs5CUlO1MuEZnN6Q4US-2">
          <mxCell style="html=1;whiteSpace=wrap;;whiteSpace=wrap;fontSize=11;spacing=3;strokeColor=#5e5e5e;strokeOpacity=100;rounded=1;absoluteArcSize=1;arcSize=7.199999999999999;strokeWidth=2;" vertex="1" zOrder="2" parent="0zxgN9BtU9qliklbt1ul-1">
            <mxGeometry x="178" y="418" width="144" height="48" as="geometry" />
          </mxCell>
        </UserObject>
        <UserObject label="" lucidchartObjectId="qkDGK5mEeanc" id="HFs5CUlO1MuEZnN6Q4US-3">
          <mxCell style="html=1;whiteSpace=wrap;;whiteSpace=wrap;fontSize=11;spacing=3;strokeColor=#5e5e5e;strokeOpacity=100;rounded=1;absoluteArcSize=1;arcSize=7.199999999999999;strokeWidth=2;" vertex="1" zOrder="3" parent="0zxgN9BtU9qliklbt1ul-1">
            <mxGeometry x="178" y="490" width="144" height="48" as="geometry" />
          </mxCell>
        </UserObject>
        <UserObject label="" lucidchartObjectId="tkDG5XpOnDj0" id="HFs5CUlO1MuEZnN6Q4US-4">
          <mxCell style="html=1;whiteSpace=wrap;;whiteSpace=wrap;fontSize=11;spacing=3;strokeColor=#5e5e5e;strokeOpacity=100;rounded=1;absoluteArcSize=1;arcSize=7.199999999999999;strokeWidth=2;" vertex="1" zOrder="4" parent="0zxgN9BtU9qliklbt1ul-1">
            <mxGeometry x="178" y="562" width="144" height="48" as="geometry" />
          </mxCell>
        </UserObject>
        <UserObject label="0" lucidchartObjectId="DkDGw91_ZBJE" id="HFs5CUlO1MuEZnN6Q4US-5">
          <mxCell style="html=1;whiteSpace=wrap;;whiteSpace=wrap;fontSize=18;fontColor=#333333;spacing=3;strokeOpacity=0;fillOpacity=0;rounded=1;absoluteArcSize=1;arcSize=7.199999999999999;fillColor=#ffffff;strokeWidth=2;" vertex="1" zOrder="5" parent="0zxgN9BtU9qliklbt1ul-1">
            <mxGeometry x="70" y="354" width="144" height="36" as="geometry" />
          </mxCell>
        </UserObject>
        <UserObject label="1" lucidchartObjectId="QkDGZsleuM5r" id="HFs5CUlO1MuEZnN6Q4US-6">
          <mxCell style="html=1;whiteSpace=wrap;;whiteSpace=wrap;fontSize=18;fontColor=#333333;spacing=3;strokeOpacity=0;fillOpacity=0;rounded=1;absoluteArcSize=1;arcSize=7.199999999999999;fillColor=#ffffff;strokeWidth=2;" vertex="1" zOrder="6" parent="0zxgN9BtU9qliklbt1ul-1">
            <mxGeometry x="70" y="424" width="144" height="36" as="geometry" />
          </mxCell>
        </UserObject>
        <UserObject label="2" lucidchartObjectId="UkDGNldg_gdS" id="HFs5CUlO1MuEZnN6Q4US-7">
          <mxCell style="html=1;whiteSpace=wrap;;whiteSpace=wrap;fontSize=18;fontColor=#333333;spacing=3;strokeOpacity=0;fillOpacity=0;rounded=1;absoluteArcSize=1;arcSize=7.199999999999999;fillColor=#ffffff;strokeWidth=2;" vertex="1" zOrder="7" parent="0zxgN9BtU9qliklbt1ul-1">
            <mxGeometry x="70" y="496" width="144" height="36" as="geometry" />
          </mxCell>
        </UserObject>
        <UserObject label="3" lucidchartObjectId="ZkDGvmtAK0yy" id="HFs5CUlO1MuEZnN6Q4US-8">
          <mxCell style="html=1;whiteSpace=wrap;;whiteSpace=wrap;fontSize=18;fontColor=#333333;spacing=3;strokeOpacity=0;fillOpacity=0;rounded=1;absoluteArcSize=1;arcSize=7.199999999999999;fillColor=#ffffff;strokeWidth=2;" vertex="1" zOrder="8" parent="0zxgN9BtU9qliklbt1ul-1">
            <mxGeometry x="70" y="556" width="144" height="36" as="geometry" />
          </mxCell>
        </UserObject>
        <UserObject label="" lucidchartObjectId="alDG737u2-MD" id="HFs5CUlO1MuEZnN6Q4US-9">
          <mxCell style="html=1;whiteSpace=wrap;;whiteSpace=wrap;fontSize=11;spacing=3;strokeColor=#5e5e5e;strokeOpacity=100;rounded=1;absoluteArcSize=1;arcSize=7.199999999999999;strokeWidth=2;" vertex="1" zOrder="9" parent="0zxgN9BtU9qliklbt1ul-1">
            <mxGeometry x="178" y="628" width="144" height="48" as="geometry" />
          </mxCell>
        </UserObject>
        <UserObject label="4" lucidchartObjectId="flDGsHlUV~Gh" id="HFs5CUlO1MuEZnN6Q4US-10">
          <mxCell style="html=1;whiteSpace=wrap;;whiteSpace=wrap;fontSize=18;fontColor=#333333;spacing=3;strokeOpacity=0;fillOpacity=0;rounded=1;absoluteArcSize=1;arcSize=7.199999999999999;fillColor=#ffffff;strokeWidth=2;" vertex="1" zOrder="10" parent="0zxgN9BtU9qliklbt1ul-1">
            <mxGeometry x="70" y="634" width="144" height="36" as="geometry" />
          </mxCell>
        </UserObject>
        <UserObject label="" lucidchartObjectId="PoDG6qd6Zcoc" id="HFs5CUlO1MuEZnN6Q4US-11">
          <mxCell style="html=1;whiteSpace=wrap;;whiteSpace=wrap;fontSize=11;spacing=3;strokeColor=#5e5e5e;strokeOpacity=100;fillOpacity=100;rounded=1;absoluteArcSize=1;arcSize=7.199999999999999;fillColor=#ffdba9;strokeWidth=2;" vertex="1" zOrder="19" parent="0zxgN9BtU9qliklbt1ul-1">
            <mxGeometry x="334" y="354" width="132" height="35" as="geometry" />
          </mxCell>
        </UserObject>
        <UserObject label="" lucidchartObjectId="PoDGtAfB9Z8W" id="HFs5CUlO1MuEZnN6Q4US-12">
          <mxCell style="html=1;whiteSpace=wrap;;whiteSpace=wrap;fontSize=11;spacing=3;strokeColor=#5e5e5e;strokeOpacity=100;fillOpacity=100;rounded=1;absoluteArcSize=1;arcSize=7.199999999999999;fillColor=#ffdba9;strokeWidth=2;" vertex="1" zOrder="20" parent="0zxgN9BtU9qliklbt1ul-1">
            <mxGeometry x="340" y="360" width="30" height="23" as="geometry" />
          </mxCell>
        </UserObject>
        <UserObject label="" lucidchartObjectId="PoDG~78hR0C_" id="HFs5CUlO1MuEZnN6Q4US-13">
          <mxCell style="html=1;whiteSpace=wrap;;whiteSpace=wrap;fontSize=11;spacing=3;strokeColor=#5e5e5e;strokeOpacity=100;fillOpacity=100;rounded=1;absoluteArcSize=1;arcSize=7.199999999999999;fillColor=#ffdba9;strokeWidth=2;" vertex="1" zOrder="21" parent="0zxgN9BtU9qliklbt1ul-1">
            <mxGeometry x="430" y="360" width="30" height="23" as="geometry" />
          </mxCell>
        </UserObject>
        <UserObject label="" lucidchartObjectId="PoDG.crxVj5r" id="HFs5CUlO1MuEZnN6Q4US-14">
          <mxCell style="html=1;whiteSpace=wrap;;whiteSpace=wrap;fontSize=11;spacing=3;strokeColor=#5e5e5e;strokeOpacity=100;fillOpacity=100;rounded=1;absoluteArcSize=1;arcSize=7.199999999999999;fillColor=#ffdba9;strokeWidth=2;" vertex="1" zOrder="22" parent="0zxgN9BtU9qliklbt1ul-1">
            <mxGeometry x="376" y="354" width="48" height="35" as="geometry" />
          </mxCell>
        </UserObject>
        <UserObject label="Root" lucidchartObjectId="epDG_kFiEgua" id="HFs5CUlO1MuEZnN6Q4US-15">
          <mxCell style="html=1;whiteSpace=wrap;;whiteSpace=wrap;fontSize=13;fontColor=#333333;spacing=3;strokeOpacity=0;fillOpacity=0;rounded=1;absoluteArcSize=1;arcSize=7.199999999999999;fillColor=#ffffff;strokeWidth=2;" vertex="1" zOrder="26" parent="0zxgN9BtU9qliklbt1ul-1">
            <mxGeometry x="214" y="353" width="60" height="36" as="geometry" />
          </mxCell>
        </UserObject>
        <UserObject label="" lucidchartObjectId="MyDGFwKzmLox" id="HFs5CUlO1MuEZnN6Q4US-16">
          <mxCell style="html=1;whiteSpace=wrap;;whiteSpace=wrap;fontSize=11;spacing=3;strokeColor=#5e5e5e;strokeOpacity=100;rounded=1;absoluteArcSize=1;arcSize=7.199999999999999;strokeWidth=2;" vertex="1" zOrder="29" parent="0zxgN9BtU9qliklbt1ul-1">
            <mxGeometry x="334" y="424" width="132" height="35" as="geometry" />
          </mxCell>
        </UserObject>
        <UserObject label="" lucidchartObjectId="MyDGLu8q1rsf" id="HFs5CUlO1MuEZnN6Q4US-17">
          <mxCell style="html=1;whiteSpace=wrap;;whiteSpace=wrap;fontSize=11;spacing=3;strokeColor=#5e5e5e;strokeOpacity=100;rounded=1;absoluteArcSize=1;arcSize=7.199999999999999;strokeWidth=2;" vertex="1" zOrder="30" parent="0zxgN9BtU9qliklbt1ul-1">
            <mxGeometry x="340" y="430" width="30" height="23" as="geometry" />
          </mxCell>
        </UserObject>
        <UserObject label="" lucidchartObjectId="MyDGn54SrBQ_" id="HFs5CUlO1MuEZnN6Q4US-18">
          <mxCell style="html=1;whiteSpace=wrap;;whiteSpace=wrap;fontSize=11;spacing=3;strokeColor=#5e5e5e;strokeOpacity=100;rounded=1;absoluteArcSize=1;arcSize=7.199999999999999;strokeWidth=2;" vertex="1" zOrder="31" parent="0zxgN9BtU9qliklbt1ul-1">
            <mxGeometry x="430" y="430" width="30" height="23" as="geometry" />
          </mxCell>
        </UserObject>
        <UserObject label="" lucidchartObjectId="MyDG9oI9kd3E" id="HFs5CUlO1MuEZnN6Q4US-19">
          <mxCell style="html=1;whiteSpace=wrap;;whiteSpace=wrap;fontSize=11;spacing=3;strokeColor=#5e5e5e;strokeOpacity=100;rounded=1;absoluteArcSize=1;arcSize=7.199999999999999;strokeWidth=2;" vertex="1" zOrder="32" parent="0zxgN9BtU9qliklbt1ul-1">
            <mxGeometry x="376" y="424" width="48" height="35" as="geometry" />
          </mxCell>
        </UserObject>
        <UserObject label="" lucidchartObjectId="7yDG69_6mBgo" id="HFs5CUlO1MuEZnN6Q4US-20">
          <mxCell style="html=1;whiteSpace=wrap;;whiteSpace=wrap;fontSize=11;spacing=3;strokeColor=#5e5e5e;strokeOpacity=100;rounded=1;absoluteArcSize=1;arcSize=7.199999999999999;strokeWidth=2;" vertex="1" zOrder="33" parent="0zxgN9BtU9qliklbt1ul-1">
            <mxGeometry x="334" y="497" width="132" height="35" as="geometry" />
          </mxCell>
        </UserObject>
        <UserObject label="" lucidchartObjectId="7yDGr4oscpkb" id="HFs5CUlO1MuEZnN6Q4US-21">
          <mxCell style="html=1;whiteSpace=wrap;;whiteSpace=wrap;fontSize=11;spacing=3;strokeColor=#5e5e5e;strokeOpacity=100;rounded=1;absoluteArcSize=1;arcSize=7.199999999999999;strokeWidth=2;" vertex="1" zOrder="34" parent="0zxgN9BtU9qliklbt1ul-1">
            <mxGeometry x="340" y="503" width="30" height="23" as="geometry" />
          </mxCell>
        </UserObject>
        <UserObject label="" lucidchartObjectId="7yDGgNE7gqlo" id="HFs5CUlO1MuEZnN6Q4US-22">
          <mxCell style="html=1;whiteSpace=wrap;;whiteSpace=wrap;fontSize=11;spacing=3;strokeColor=#5e5e5e;strokeOpacity=100;rounded=1;absoluteArcSize=1;arcSize=7.199999999999999;strokeWidth=2;" vertex="1" zOrder="35" parent="0zxgN9BtU9qliklbt1ul-1">
            <mxGeometry x="430" y="503" width="30" height="23" as="geometry" />
          </mxCell>
        </UserObject>
        <UserObject label="" lucidchartObjectId="7yDG8B97a38m" id="HFs5CUlO1MuEZnN6Q4US-23">
          <mxCell style="html=1;whiteSpace=wrap;;whiteSpace=wrap;fontSize=11;spacing=3;strokeColor=#5e5e5e;strokeOpacity=100;rounded=1;absoluteArcSize=1;arcSize=7.199999999999999;strokeWidth=2;" vertex="1" zOrder="36" parent="0zxgN9BtU9qliklbt1ul-1">
            <mxGeometry x="376" y="497" width="48" height="35" as="geometry" />
          </mxCell>
        </UserObject>
        <UserObject label="" lucidchartObjectId="dzDGmke.envG" id="HFs5CUlO1MuEZnN6Q4US-24">
          <mxCell style="html=1;whiteSpace=wrap;;whiteSpace=wrap;fontSize=11;spacing=3;strokeColor=#5e5e5e;strokeOpacity=100;rounded=1;absoluteArcSize=1;arcSize=7.199999999999999;strokeWidth=2;" vertex="1" zOrder="37" parent="0zxgN9BtU9qliklbt1ul-1">
            <mxGeometry x="478" y="568" width="132" height="35" as="geometry" />
          </mxCell>
        </UserObject>
        <UserObject label="" lucidchartObjectId="dzDG_TIBZVDY" id="HFs5CUlO1MuEZnN6Q4US-25">
          <mxCell style="html=1;whiteSpace=wrap;;whiteSpace=wrap;fontSize=11;spacing=3;strokeColor=#5e5e5e;strokeOpacity=100;rounded=1;absoluteArcSize=1;arcSize=7.199999999999999;strokeWidth=2;" vertex="1" zOrder="38" parent="0zxgN9BtU9qliklbt1ul-1">
            <mxGeometry x="484" y="574" width="30" height="23" as="geometry" />
          </mxCell>
        </UserObject>
        <UserObject label="" lucidchartObjectId="dzDGHme0JBAL" id="HFs5CUlO1MuEZnN6Q4US-26">
          <mxCell style="html=1;whiteSpace=wrap;;whiteSpace=wrap;fontSize=11;spacing=3;strokeColor=#5e5e5e;strokeOpacity=100;rounded=1;absoluteArcSize=1;arcSize=7.199999999999999;strokeWidth=2;" vertex="1" zOrder="39" parent="0zxgN9BtU9qliklbt1ul-1">
            <mxGeometry x="574" y="574" width="30" height="23" as="geometry" />
          </mxCell>
        </UserObject>
        <UserObject label="" lucidchartObjectId="dzDGE3NSWet1" id="HFs5CUlO1MuEZnN6Q4US-27">
          <mxCell style="html=1;whiteSpace=wrap;;whiteSpace=wrap;fontSize=11;spacing=3;strokeColor=#5e5e5e;strokeOpacity=100;rounded=1;absoluteArcSize=1;arcSize=7.199999999999999;strokeWidth=2;" vertex="1" zOrder="40" parent="0zxgN9BtU9qliklbt1ul-1">
            <mxGeometry x="520" y="568" width="48" height="35" as="geometry" />
          </mxCell>
        </UserObject>
        <mxCell id="HFs5CUlO1MuEZnN6Q4US-28" value="" style="group;dropTarget=0;" vertex="1" parent="0zxgN9BtU9qliklbt1ul-1">
          <mxGeometry x="790" y="641" width="132" height="35" as="geometry" />
        </mxCell>
        <UserObject label="" lucidchartObjectId="CzDG5eEodioo" id="HFs5CUlO1MuEZnN6Q4US-29">
          <mxCell style="html=1;whiteSpace=wrap;;whiteSpace=wrap;fontSize=11;spacing=3;strokeColor=#5e5e5e;strokeOpacity=100;rounded=1;absoluteArcSize=1;arcSize=7.199999999999999;strokeWidth=2;" vertex="1" zOrder="50" parent="HFs5CUlO1MuEZnN6Q4US-28">
            <mxGeometry width="132" height="35" as="geometry" />
          </mxCell>
        </UserObject>
        <UserObject label="" lucidchartObjectId="CzDGHZVDNG.T" id="HFs5CUlO1MuEZnN6Q4US-30">
          <mxCell style="html=1;whiteSpace=wrap;;whiteSpace=wrap;fontSize=11;spacing=3;strokeColor=#5e5e5e;strokeOpacity=100;rounded=1;absoluteArcSize=1;arcSize=7.199999999999999;strokeWidth=2;" vertex="1" zOrder="51" parent="HFs5CUlO1MuEZnN6Q4US-28">
            <mxGeometry x="6" y="6" width="30" height="23" as="geometry" />
          </mxCell>
        </UserObject>
        <UserObject label="" lucidchartObjectId="CzDG5ExqS6kb" id="HFs5CUlO1MuEZnN6Q4US-31">
          <mxCell style="html=1;whiteSpace=wrap;;whiteSpace=wrap;fontSize=11;spacing=3;strokeColor=#5e5e5e;strokeOpacity=100;rounded=1;absoluteArcSize=1;arcSize=7.199999999999999;strokeWidth=2;" vertex="1" zOrder="52" parent="HFs5CUlO1MuEZnN6Q4US-28">
            <mxGeometry x="96" y="6" width="30" height="23" as="geometry" />
          </mxCell>
        </UserObject>
        <UserObject label="" lucidchartObjectId="CzDGRBUMCbgZ" id="HFs5CUlO1MuEZnN6Q4US-32">
          <mxCell style="html=1;whiteSpace=wrap;;whiteSpace=wrap;fontSize=11;spacing=3;strokeColor=#5e5e5e;strokeOpacity=100;rounded=1;absoluteArcSize=1;arcSize=7.199999999999999;strokeWidth=2;" vertex="1" zOrder="53" parent="HFs5CUlO1MuEZnN6Q4US-28">
            <mxGeometry x="42" width="48" height="35" as="geometry" />
          </mxCell>
        </UserObject>
        <UserObject label="00" lucidchartObjectId="UADGv.UOPugP" id="HFs5CUlO1MuEZnN6Q4US-33">
          <mxCell style="html=1;whiteSpace=wrap;;whiteSpace=wrap;fontSize=12;fontColor=#000000;spacing=3;strokeOpacity=0;fillOpacity=0;rounded=1;absoluteArcSize=1;arcSize=7.199999999999999;fillColor=#ffffff;strokeWidth=2;" vertex="1" zOrder="57" parent="0zxgN9BtU9qliklbt1ul-1">
            <mxGeometry x="387" y="504" width="30" height="23" as="geometry" />
          </mxCell>
        </UserObject>
        <UserObject label="&lt;span style=&quot;font-size:12px;color:#000000;&quot;&gt; &lt;/span&gt;&lt;span style=&quot;font-size:13px;color:#333333;&quot;&gt;0&lt;/span&gt;" lucidchartObjectId="3BDGD7gB7R~a" id="HFs5CUlO1MuEZnN6Q4US-34">
          <mxCell style="html=1;whiteSpace=wrap;;whiteSpace=wrap;spacing=3;strokeOpacity=0;fillOpacity=0;rounded=1;absoluteArcSize=1;arcSize=7.199999999999999;fillColor=#ffffff;strokeWidth=2;" vertex="1" zOrder="58" parent="0zxgN9BtU9qliklbt1ul-1">
            <mxGeometry x="384" y="431" width="30" height="23" as="geometry" />
          </mxCell>
        </UserObject>
        <UserObject label="001" lucidchartObjectId="xCDGzhHitIAo" id="HFs5CUlO1MuEZnN6Q4US-35">
          <mxCell style="html=1;whiteSpace=wrap;;whiteSpace=wrap;fontSize=12;fontColor=#000000;spacing=3;strokeOpacity=0;fillOpacity=0;rounded=1;absoluteArcSize=1;arcSize=7.199999999999999;fillColor=#ffffff;strokeWidth=2;" vertex="1" zOrder="59" parent="0zxgN9BtU9qliklbt1ul-1">
            <mxGeometry x="530" y="575" width="30" height="23" as="geometry" />
          </mxCell>
        </UserObject>
        <UserObject label="0011" lucidchartObjectId="UCDGpaMDgABH" id="HFs5CUlO1MuEZnN6Q4US-36">
          <mxCell style="html=1;whiteSpace=wrap;;whiteSpace=wrap;fontSize=12;fontColor=#000000;spacing=3;strokeOpacity=0;fillOpacity=0;rounded=1;absoluteArcSize=1;arcSize=7.199999999999999;fillColor=#ffffff;strokeWidth=2;" vertex="1" zOrder="60" parent="0zxgN9BtU9qliklbt1ul-1">
            <mxGeometry x="842" y="646" width="30" height="23" as="geometry" />
          </mxCell>
        </UserObject>
        <UserObject label="0" lucidchartObjectId="QDDG4a-rcd0e" id="HFs5CUlO1MuEZnN6Q4US-37">
          <mxCell style="html=1;whiteSpace=wrap;;whiteSpace=wrap;fontSize=18;fontColor=#333333;spacing=3;strokeOpacity=0;fillOpacity=0;rounded=1;absoluteArcSize=1;arcSize=7.199999999999999;fillColor=#ffffff;strokeWidth=2;" vertex="1" zOrder="61" parent="0zxgN9BtU9qliklbt1ul-1">
            <mxGeometry x="330" y="308" width="144" height="36" as="geometry" />
          </mxCell>
        </UserObject>
        <UserObject label="1" lucidchartObjectId="YDDGWDXEuqRn" id="HFs5CUlO1MuEZnN6Q4US-38">
          <mxCell style="html=1;whiteSpace=wrap;;whiteSpace=wrap;fontSize=18;fontColor=#333333;spacing=3;strokeOpacity=0;fillOpacity=0;rounded=1;absoluteArcSize=1;arcSize=7.199999999999999;fillColor=#ffffff;strokeWidth=2;" vertex="1" zOrder="62" parent="0zxgN9BtU9qliklbt1ul-1">
            <mxGeometry x="478" y="308" width="144" height="36" as="geometry" />
          </mxCell>
        </UserObject>
        <UserObject label="2" lucidchartObjectId="8DDGZWbXn_Ms" id="HFs5CUlO1MuEZnN6Q4US-39">
          <mxCell style="html=1;whiteSpace=wrap;;whiteSpace=wrap;fontSize=18;fontColor=#333333;spacing=3;strokeOpacity=0;fillOpacity=0;rounded=1;absoluteArcSize=1;arcSize=7.199999999999999;fillColor=#ffffff;strokeWidth=2;" vertex="1" zOrder="63" parent="0zxgN9BtU9qliklbt1ul-1">
            <mxGeometry x="634" y="308" width="144" height="36" as="geometry" />
          </mxCell>
        </UserObject>
        <UserObject label="3" lucidchartObjectId="iEDGpJNpWHK8" id="HFs5CUlO1MuEZnN6Q4US-40">
          <mxCell style="html=1;whiteSpace=wrap;;whiteSpace=wrap;fontSize=18;fontColor=#333333;spacing=3;strokeOpacity=0;fillOpacity=0;rounded=1;absoluteArcSize=1;arcSize=7.199999999999999;fillColor=#ffffff;strokeWidth=2;" vertex="1" zOrder="64" parent="0zxgN9BtU9qliklbt1ul-1">
            <mxGeometry x="784" y="308" width="144" height="36" as="geometry" />
          </mxCell>
        </UserObject>
        <mxCell id="HFs5CUlO1MuEZnN6Q4US-41" value="" style="shape=doubleArrow;arrowWidth=0.5;arrowSize=0.032214765100671144;whiteSpace=wrap;fontSize=11;spacing=3;strokeColor=#5e5e5e;strokeOpacity=100;rounded=1;absoluteArcSize=1;arcSize=7.199999999999999;strokeWidth=2;html=1;" vertex="1" zOrder="65" parent="0zxgN9BtU9qliklbt1ul-1">
          <mxGeometry x="178" y="250" width="745" height="48" as="geometry" />
        </mxCell>
        <mxCell id="HFs5CUlO1MuEZnN6Q4US-42" value="" style="shape=doubleArrow;arrowWidth=0.5;arrowSize=0.0729483282674772;whiteSpace=wrap;fontSize=11;spacing=3;strokeColor=#5e5e5e;strokeOpacity=100;rounded=1;absoluteArcSize=1;arcSize=7.199999999999999;rotation=-270;strokeWidth=2;html=1;" vertex="1" zOrder="66" parent="0zxgN9BtU9qliklbt1ul-1">
          <mxGeometry x="-70" y="488" width="329" height="48" as="geometry" />
        </mxCell>
        <UserObject label="log u" lucidchartObjectId="OFDG~PyZK58k" id="HFs5CUlO1MuEZnN6Q4US-43">
          <mxCell style="html=1;whiteSpace=wrap;;whiteSpace=wrap;fontSize=18;fontColor=#333333;fontStyle=1;spacing=3;strokeColor=#5e5e5e;strokeOpacity=100;fillOpacity=100;rounded=1;absoluteArcSize=1;arcSize=7.199999999999999;rotation=-90;fillColor=#ffdba9;strokeWidth=2;" vertex="1" zOrder="68" parent="0zxgN9BtU9qliklbt1ul-1">
            <mxGeometry x="-39" y="483" width="180" height="38" as="geometry" />
          </mxCell>
        </UserObject>
        <UserObject label="" lucidchartObjectId="6GDGnlCA-qbs" id="HFs5CUlO1MuEZnN6Q4US-44">
          <mxCell style="html=1;jettySize=18;whiteSpace=wrap;fontSize=11;strokeColor=#5E5E5E;rounded=1;arcSize=12;edgeStyle=orthogonalEdgeStyle;startArrow=none;;endArrow=block;endFill=1;;exitX=0.5;exitY=1.0385273886986273;exitPerimeter=0;entryX=0.8325358103459053;entryY=-0.025684931506849275;entryPerimeter=0;" edge="1" parent="0zxgN9BtU9qliklbt1ul-1" source="HFs5CUlO1MuEZnN6Q4US-17" target="HFs5CUlO1MuEZnN6Q4US-32">
            <mxGeometry width="100" height="100" relative="1" as="geometry">
              <Array as="points">
                <mxPoint x="355" y="480" />
                <mxPoint x="872" y="480" />
              </Array>
            </mxGeometry>
          </mxCell>
        </UserObject>
        <UserObject label="" lucidchartObjectId="~HDGigWZeJa0" id="HFs5CUlO1MuEZnN6Q4US-45">
          <mxCell style="html=1;jettySize=18;whiteSpace=wrap;fontSize=11;strokeColor=#5E5E5E;rounded=1;arcSize=12;edgeStyle=orthogonalEdgeStyle;startArrow=none;;endArrow=block;endFill=1;;exitX=0.5;exitY=1.0385273886986273;exitPerimeter=0;entryX=0.5;entryY=-0.025684931506849275;entryPerimeter=0;" edge="1" parent="0zxgN9BtU9qliklbt1ul-1" source="HFs5CUlO1MuEZnN6Q4US-22" target="HFs5CUlO1MuEZnN6Q4US-29">
            <mxGeometry width="100" height="100" relative="1" as="geometry">
              <Array as="points">
                <mxPoint x="445" y="540" />
                <mxPoint x="856" y="540" />
              </Array>
            </mxGeometry>
          </mxCell>
        </UserObject>
        <UserObject label="" lucidchartObjectId="pIDGeT4Yw_6n" id="HFs5CUlO1MuEZnN6Q4US-46">
          <mxCell style="html=1;jettySize=18;whiteSpace=wrap;fontSize=11;strokeColor=#5E5E5E;rounded=1;arcSize=12;edgeStyle=orthogonalEdgeStyle;startArrow=none;;endArrow=block;endFill=1;;exitX=0.5;exitY=1.0385273886986273;exitPerimeter=0;entryX=0.4949061501156706;entryY=-0.025684931506849213;entryPerimeter=0;" edge="1" parent="0zxgN9BtU9qliklbt1ul-1" source="HFs5CUlO1MuEZnN6Q4US-26" target="HFs5CUlO1MuEZnN6Q4US-32">
            <mxGeometry width="100" height="100" relative="1" as="geometry">
              <Array as="points" />
            </mxGeometry>
          </mxCell>
        </UserObject>
        <UserObject label="Linked List" lucidchartObjectId="zIDG6kOaazEi" id="HFs5CUlO1MuEZnN6Q4US-47">
          <mxCell style="html=1;whiteSpace=wrap;;whiteSpace=wrap;fontSize=19;fontColor=#333333;fontStyle=1;spacing=3;strokeOpacity=0;fillOpacity=0;rounded=1;absoluteArcSize=1;arcSize=7.199999999999999;fillColor=#ffffff;strokeWidth=2;" vertex="1" zOrder="73" parent="0zxgN9BtU9qliklbt1ul-1">
            <mxGeometry x="1000" y="780" width="174" height="36" as="geometry" />
          </mxCell>
        </UserObject>
        <UserObject label="" lucidchartObjectId="fWDGwsRCd._m" id="HFs5CUlO1MuEZnN6Q4US-48">
          <mxCell style="html=1;jettySize=18;whiteSpace=wrap;fontSize=11;strokeColor=#5E5E5E;rounded=1;arcSize=12;edgeStyle=orthogonalEdgeStyle;startArrow=none;;endArrow=block;endFill=1;;exitX=0.5;exitY=1.0385273886986273;exitPerimeter=0;entryX=-0.006818181818181818;entryY=0.5;entryPerimeter=0;" edge="1" parent="0zxgN9BtU9qliklbt1ul-1" source="HFs5CUlO1MuEZnN6Q4US-21" target="HFs5CUlO1MuEZnN6Q4US-29">
            <mxGeometry width="100" height="100" relative="1" as="geometry">
              <Array as="points" />
            </mxGeometry>
          </mxCell>
        </UserObject>
        <UserObject label="" lucidchartObjectId="QXDGrlbIuTcQ" id="HFs5CUlO1MuEZnN6Q4US-49">
          <mxCell style="html=1;jettySize=18;whiteSpace=wrap;fontSize=11;strokeColor=#5E5E5E;rounded=1;arcSize=12;edgeStyle=orthogonalEdgeStyle;startArrow=none;;endArrow=block;endFill=1;;" edge="1" parent="0zxgN9BtU9qliklbt1ul-1">
            <mxGeometry width="100" height="100" relative="1" as="geometry">
              <Array as="points">
                <mxPoint x="450" y="470" />
                <mxPoint x="1190" y="470" />
              </Array>
              <mxPoint x="450" y="450" as="sourcePoint" />
              <mxPoint x="1190" y="630" as="targetPoint" />
            </mxGeometry>
          </mxCell>
        </UserObject>
        <UserObject label="" lucidchartObjectId="7XDG0mC~gyap" id="HFs5CUlO1MuEZnN6Q4US-50">
          <mxCell style="html=1;jettySize=18;whiteSpace=wrap;fontSize=11;strokeColor=#5E5E5E;rounded=1;arcSize=12;edgeStyle=orthogonalEdgeStyle;startArrow=none;;endArrow=block;endFill=1;;exitX=1.0068181818181818;exitY=0.5;exitPerimeter=0;" edge="1" parent="0zxgN9BtU9qliklbt1ul-1" source="HFs5CUlO1MuEZnN6Q4US-11">
            <mxGeometry width="100" height="100" relative="1" as="geometry">
              <Array as="points" />
              <mxPoint x="1160" y="630" as="targetPoint" />
            </mxGeometry>
          </mxCell>
        </UserObject>
        <UserObject label="" lucidchartObjectId="KYDGmWPVAHYc" id="HFs5CUlO1MuEZnN6Q4US-51">
          <mxCell style="html=1;jettySize=18;whiteSpace=wrap;fontSize=11;strokeColor=#5E5E5E;rounded=1;arcSize=12;edgeStyle=orthogonalEdgeStyle;startArrow=none;;endArrow=block;endFill=1;;exitX=0.5;exitY=1.0385273886986273;exitPerimeter=0;entryX=-0.006818181818181818;entryY=0.09932709411302378;entryPerimeter=0;" edge="1" parent="0zxgN9BtU9qliklbt1ul-1" source="HFs5CUlO1MuEZnN6Q4US-25" target="HFs5CUlO1MuEZnN6Q4US-29">
            <mxGeometry width="100" height="100" relative="1" as="geometry">
              <Array as="points" />
            </mxGeometry>
          </mxCell>
        </UserObject>
        <UserObject label="" lucidchartObjectId="PfEG4gMCgOay" id="HFs5CUlO1MuEZnN6Q4US-52">
          <mxCell style="html=1;jettySize=18;whiteSpace=wrap;fontSize=11;strokeColor=#5E5E5E;rounded=1;arcSize=12;edgeStyle=orthogonalEdgeStyle;startArrow=none;;endArrow=block;endFill=1;;exitX=0.5;exitY=1.0385273886986273;exitPerimeter=0;" edge="1" parent="0zxgN9BtU9qliklbt1ul-1" source="HFs5CUlO1MuEZnN6Q4US-12">
            <mxGeometry width="100" height="100" relative="1" as="geometry">
              <Array as="points">
                <mxPoint x="355" y="400" />
                <mxPoint x="901" y="400" />
              </Array>
              <mxPoint x="901" y="640" as="targetPoint" />
            </mxGeometry>
          </mxCell>
        </UserObject>
        <UserObject label="4" lucidchartObjectId="iEDGpJNpWHK8" id="HFs5CUlO1MuEZnN6Q4US-53">
          <mxCell style="html=1;whiteSpace=wrap;;whiteSpace=wrap;fontSize=18;fontColor=#333333;spacing=3;strokeOpacity=0;fillOpacity=0;rounded=1;absoluteArcSize=1;arcSize=7.199999999999999;fillColor=#ffffff;strokeWidth=2;" vertex="1" zOrder="64" parent="0zxgN9BtU9qliklbt1ul-1">
            <mxGeometry x="922" y="308" width="144" height="36" as="geometry" />
          </mxCell>
        </UserObject>
        <UserObject label="5" lucidchartObjectId="iEDGpJNpWHK8" id="HFs5CUlO1MuEZnN6Q4US-54">
          <mxCell style="html=1;whiteSpace=wrap;;whiteSpace=wrap;fontSize=18;fontColor=#333333;spacing=3;strokeOpacity=0;fillOpacity=0;rounded=1;absoluteArcSize=1;arcSize=7.199999999999999;fillColor=#ffffff;strokeWidth=2;" vertex="1" zOrder="64" parent="0zxgN9BtU9qliklbt1ul-1">
            <mxGeometry x="1090" y="308" width="144" height="36" as="geometry" />
          </mxCell>
        </UserObject>
        <mxCell id="HFs5CUlO1MuEZnN6Q4US-68" style="edgeStyle=orthogonalEdgeStyle;rounded=0;orthogonalLoop=1;jettySize=auto;html=1;exitX=1;exitY=0.5;exitDx=0;exitDy=0;" edge="1" parent="0zxgN9BtU9qliklbt1ul-1" source="HFs5CUlO1MuEZnN6Q4US-69">
          <mxGeometry relative="1" as="geometry">
            <mxPoint x="1170" y="630" as="targetPoint" />
          </mxGeometry>
        </mxCell>
        <mxCell id="HFs5CUlO1MuEZnN6Q4US-61" value="" style="group;dropTarget=0;" vertex="1" parent="0zxgN9BtU9qliklbt1ul-1">
          <mxGeometry x="1096" y="635" width="132" height="35" as="geometry" />
        </mxCell>
        <UserObject label="" lucidchartObjectId="CzDG5eEodioo" id="HFs5CUlO1MuEZnN6Q4US-62">
          <mxCell style="html=1;whiteSpace=wrap;;whiteSpace=wrap;fontSize=11;spacing=3;strokeColor=#5e5e5e;strokeOpacity=100;rounded=1;absoluteArcSize=1;arcSize=7.199999999999999;strokeWidth=2;" vertex="1" zOrder="50" parent="HFs5CUlO1MuEZnN6Q4US-61">
            <mxGeometry width="132" height="35" as="geometry" />
          </mxCell>
        </UserObject>
        <UserObject label="" lucidchartObjectId="CzDGHZVDNG.T" id="HFs5CUlO1MuEZnN6Q4US-63">
          <mxCell style="html=1;whiteSpace=wrap;;whiteSpace=wrap;fontSize=11;spacing=3;strokeColor=#5e5e5e;strokeOpacity=100;rounded=1;absoluteArcSize=1;arcSize=7.199999999999999;strokeWidth=2;" vertex="1" zOrder="51" parent="HFs5CUlO1MuEZnN6Q4US-61">
            <mxGeometry x="6" y="6" width="30" height="23" as="geometry" />
          </mxCell>
        </UserObject>
        <UserObject label="" lucidchartObjectId="CzDG5ExqS6kb" id="HFs5CUlO1MuEZnN6Q4US-64">
          <mxCell style="html=1;whiteSpace=wrap;;whiteSpace=wrap;fontSize=11;spacing=3;strokeColor=#5e5e5e;strokeOpacity=100;rounded=1;absoluteArcSize=1;arcSize=7.199999999999999;strokeWidth=2;" vertex="1" zOrder="52" parent="HFs5CUlO1MuEZnN6Q4US-61">
            <mxGeometry x="96" y="6" width="30" height="23" as="geometry" />
          </mxCell>
        </UserObject>
        <UserObject label="" lucidchartObjectId="CzDGRBUMCbgZ" id="HFs5CUlO1MuEZnN6Q4US-65">
          <mxCell style="html=1;whiteSpace=wrap;;whiteSpace=wrap;fontSize=11;spacing=3;strokeColor=#5e5e5e;strokeOpacity=100;rounded=1;absoluteArcSize=1;arcSize=7.199999999999999;strokeWidth=2;" vertex="1" zOrder="53" parent="HFs5CUlO1MuEZnN6Q4US-61">
            <mxGeometry x="42" width="48" height="35" as="geometry" />
          </mxCell>
        </UserObject>
        <UserObject label="0101" lucidchartObjectId="UCDGpaMDgABH" id="HFs5CUlO1MuEZnN6Q4US-66">
          <mxCell style="html=1;whiteSpace=wrap;;whiteSpace=wrap;fontSize=12;fontColor=#000000;spacing=3;strokeOpacity=0;fillOpacity=0;rounded=1;absoluteArcSize=1;arcSize=7.199999999999999;fillColor=#ffffff;strokeWidth=2;" vertex="1" zOrder="60" parent="0zxgN9BtU9qliklbt1ul-1">
            <mxGeometry x="1148" y="640" width="30" height="23" as="geometry" />
          </mxCell>
        </UserObject>
        <UserObject label="" lucidchartObjectId="MyDGFwKzmLox" id="HFs5CUlO1MuEZnN6Q4US-69">
          <mxCell style="html=1;whiteSpace=wrap;;whiteSpace=wrap;fontSize=11;spacing=3;strokeColor=#5e5e5e;strokeOpacity=100;rounded=1;absoluteArcSize=1;arcSize=7.199999999999999;strokeWidth=2;" vertex="1" zOrder="29" parent="0zxgN9BtU9qliklbt1ul-1">
            <mxGeometry x="479" y="496" width="132" height="35" as="geometry" />
          </mxCell>
        </UserObject>
        <mxCell id="HFs5CUlO1MuEZnN6Q4US-84" style="edgeStyle=orthogonalEdgeStyle;rounded=0;orthogonalLoop=1;jettySize=auto;html=1;entryX=0;entryY=0;entryDx=0;entryDy=0;" edge="1" parent="0zxgN9BtU9qliklbt1ul-1" source="HFs5CUlO1MuEZnN6Q4US-70" target="HFs5CUlO1MuEZnN6Q4US-65">
          <mxGeometry relative="1" as="geometry">
            <Array as="points">
              <mxPoint x="500" y="540" />
              <mxPoint x="1138" y="540" />
            </Array>
          </mxGeometry>
        </mxCell>
        <UserObject label="" lucidchartObjectId="MyDGLu8q1rsf" id="HFs5CUlO1MuEZnN6Q4US-70">
          <mxCell style="html=1;whiteSpace=wrap;;whiteSpace=wrap;fontSize=11;spacing=3;strokeColor=#5e5e5e;strokeOpacity=100;rounded=1;absoluteArcSize=1;arcSize=7.199999999999999;strokeWidth=2;" vertex="1" zOrder="30" parent="0zxgN9BtU9qliklbt1ul-1">
            <mxGeometry x="485" y="502" width="30" height="23" as="geometry" />
          </mxCell>
        </UserObject>
        <UserObject label="" lucidchartObjectId="MyDGn54SrBQ_" id="HFs5CUlO1MuEZnN6Q4US-71">
          <mxCell style="html=1;whiteSpace=wrap;;whiteSpace=wrap;fontSize=11;spacing=3;strokeColor=#5e5e5e;strokeOpacity=100;rounded=1;absoluteArcSize=1;arcSize=7.199999999999999;strokeWidth=2;" vertex="1" zOrder="31" parent="0zxgN9BtU9qliklbt1ul-1">
            <mxGeometry x="575" y="502" width="30" height="23" as="geometry" />
          </mxCell>
        </UserObject>
        <UserObject label="" lucidchartObjectId="MyDG9oI9kd3E" id="HFs5CUlO1MuEZnN6Q4US-72">
          <mxCell style="html=1;whiteSpace=wrap;;whiteSpace=wrap;fontSize=11;spacing=3;strokeColor=#5e5e5e;strokeOpacity=100;rounded=1;absoluteArcSize=1;arcSize=7.199999999999999;strokeWidth=2;" vertex="1" zOrder="32" parent="0zxgN9BtU9qliklbt1ul-1">
            <mxGeometry x="521" y="496" width="48" height="35" as="geometry" />
          </mxCell>
        </UserObject>
        <UserObject label="&lt;font color=&quot;#333333&quot;&gt;&lt;span style=&quot;font-size: 13px&quot;&gt;01&lt;/span&gt;&lt;/font&gt;" lucidchartObjectId="3BDGD7gB7R~a" id="HFs5CUlO1MuEZnN6Q4US-73">
          <mxCell style="html=1;whiteSpace=wrap;;whiteSpace=wrap;spacing=3;strokeOpacity=0;fillOpacity=0;rounded=1;absoluteArcSize=1;arcSize=7.199999999999999;fillColor=#ffffff;strokeWidth=2;" vertex="1" zOrder="58" parent="0zxgN9BtU9qliklbt1ul-1">
            <mxGeometry x="529" y="503" width="30" height="23" as="geometry" />
          </mxCell>
        </UserObject>
        <UserObject label="" lucidchartObjectId="MyDGFwKzmLox" id="HFs5CUlO1MuEZnN6Q4US-77">
          <mxCell style="html=1;whiteSpace=wrap;;whiteSpace=wrap;fontSize=11;spacing=3;strokeColor=#5e5e5e;strokeOpacity=100;rounded=1;absoluteArcSize=1;arcSize=7.199999999999999;strokeWidth=2;" vertex="1" zOrder="29" parent="0zxgN9BtU9qliklbt1ul-1">
            <mxGeometry x="640" y="568.5" width="132" height="35" as="geometry" />
          </mxCell>
        </UserObject>
        <mxCell id="HFs5CUlO1MuEZnN6Q4US-83" style="edgeStyle=orthogonalEdgeStyle;rounded=0;orthogonalLoop=1;jettySize=auto;html=1;entryX=0.25;entryY=0;entryDx=0;entryDy=0;" edge="1" parent="0zxgN9BtU9qliklbt1ul-1" source="HFs5CUlO1MuEZnN6Q4US-78" target="HFs5CUlO1MuEZnN6Q4US-62">
          <mxGeometry relative="1" as="geometry">
            <Array as="points">
              <mxPoint x="661" y="610" />
              <mxPoint x="1129" y="610" />
            </Array>
          </mxGeometry>
        </mxCell>
        <UserObject label="" lucidchartObjectId="MyDGLu8q1rsf" id="HFs5CUlO1MuEZnN6Q4US-78">
          <mxCell style="html=1;whiteSpace=wrap;;whiteSpace=wrap;fontSize=11;spacing=3;strokeColor=#5e5e5e;strokeOpacity=100;rounded=1;absoluteArcSize=1;arcSize=7.199999999999999;strokeWidth=2;" vertex="1" zOrder="30" parent="0zxgN9BtU9qliklbt1ul-1">
            <mxGeometry x="646" y="574.5" width="30" height="23" as="geometry" />
          </mxCell>
        </UserObject>
        <mxCell id="HFs5CUlO1MuEZnN6Q4US-82" style="edgeStyle=orthogonalEdgeStyle;rounded=0;orthogonalLoop=1;jettySize=auto;html=1;" edge="1" parent="0zxgN9BtU9qliklbt1ul-1" source="HFs5CUlO1MuEZnN6Q4US-79">
          <mxGeometry relative="1" as="geometry">
            <mxPoint x="1150" y="630" as="targetPoint" />
          </mxGeometry>
        </mxCell>
        <UserObject label="" lucidchartObjectId="MyDGn54SrBQ_" id="HFs5CUlO1MuEZnN6Q4US-79">
          <mxCell style="html=1;whiteSpace=wrap;;whiteSpace=wrap;fontSize=11;spacing=3;strokeColor=#5e5e5e;strokeOpacity=100;rounded=1;absoluteArcSize=1;arcSize=7.199999999999999;strokeWidth=2;" vertex="1" zOrder="31" parent="0zxgN9BtU9qliklbt1ul-1">
            <mxGeometry x="736" y="574.5" width="30" height="23" as="geometry" />
          </mxCell>
        </UserObject>
        <UserObject label="" lucidchartObjectId="MyDG9oI9kd3E" id="HFs5CUlO1MuEZnN6Q4US-80">
          <mxCell style="html=1;whiteSpace=wrap;;whiteSpace=wrap;fontSize=11;spacing=3;strokeColor=#5e5e5e;strokeOpacity=100;rounded=1;absoluteArcSize=1;arcSize=7.199999999999999;strokeWidth=2;" vertex="1" zOrder="32" parent="0zxgN9BtU9qliklbt1ul-1">
            <mxGeometry x="682" y="568.5" width="48" height="35" as="geometry" />
          </mxCell>
        </UserObject>
        <UserObject label="&lt;font color=&quot;#333333&quot;&gt;&lt;span style=&quot;font-size: 13px&quot;&gt;010&lt;/span&gt;&lt;/font&gt;" lucidchartObjectId="3BDGD7gB7R~a" id="HFs5CUlO1MuEZnN6Q4US-81">
          <mxCell style="html=1;whiteSpace=wrap;;whiteSpace=wrap;spacing=3;strokeOpacity=0;fillOpacity=0;rounded=1;absoluteArcSize=1;arcSize=7.199999999999999;fillColor=#ffffff;strokeWidth=2;" vertex="1" zOrder="58" parent="0zxgN9BtU9qliklbt1ul-1">
            <mxGeometry x="690" y="575.5" width="30" height="23" as="geometry" />
          </mxCell>
        </UserObject>
      </root>
    </mxGraphModel>
  </diagram>
</mxfile>
